<svg width="109" height="109" viewBox="0 0 109 109" fill="none" xmlns="http://www.w3.org/2000/svg">
<g clip-path="url(#clip0_2_100)">
<path d="M54.5 9.08334C58.5693 9.08334 62.5115 9.61925 66.2629 10.623L56.6073 20.274C55.8748 21.0094 55.2287 21.8262 54.6817 22.7083H54.5C48.2122 22.7083 42.0656 24.5729 36.8375 28.0662C31.6094 31.5595 27.5346 36.5247 25.1283 42.3339C22.7221 48.143 22.0925 54.5353 23.3192 60.7022C24.5459 66.8692 27.5737 72.534 32.0199 76.9801C36.466 81.4262 42.1308 84.4541 48.2977 85.6808C54.4647 86.9075 60.857 86.2779 66.6661 83.8717C72.4753 81.4654 77.4405 77.3906 80.9338 72.1625C84.4271 66.9344 86.2917 60.7878 86.2917 54.5V54.3183C87.1637 53.7733 87.9812 53.133 88.7214 52.3881L98.377 42.7371C99.3807 46.4885 99.9167 50.4307 99.9167 54.5C99.9167 79.5836 79.5836 99.9167 54.5 99.9167C29.4164 99.9167 9.08333 79.5836 9.08333 54.5C9.08333 29.4164 29.4164 9.08334 54.5 9.08334ZM52.6197 31.8689C52.6197 35.7338 52.429 39.6533 52.6379 43.5137L50.1854 45.9662C49.3418 46.8098 48.6726 47.8114 48.216 48.9137C47.7594 50.0159 47.5244 51.1973 47.5244 52.3904C47.5244 53.5835 47.7594 54.7649 48.216 55.8671C48.6726 56.9694 49.3418 57.9709 50.1854 58.8146C51.029 59.6582 52.0306 60.3274 53.1329 60.784C54.2351 61.2406 55.4165 61.4756 56.6096 61.4756C57.8027 61.4756 58.9841 61.2406 60.0863 60.784C61.1886 60.3274 62.1901 59.6582 63.0338 58.8146L65.4863 56.3621C69.3467 56.571 73.2616 56.3802 77.1311 56.3802C76.7723 60.6964 75.1868 64.8199 72.5614 68.2645C69.936 71.7091 66.3804 74.331 62.3138 75.8211C58.2472 77.3112 53.8392 77.6074 49.6099 76.6745C45.3805 75.7417 41.5061 73.6189 38.4436 70.5564C35.3811 67.4939 33.2583 63.6195 32.3255 59.3901C31.3926 55.1608 31.6887 50.7528 33.1789 46.6862C34.669 42.6196 37.2909 39.064 40.7355 36.4386C44.1801 33.8132 48.3036 32.2276 52.6197 31.8689ZM84.039 9.66013C84.868 10.0038 85.5765 10.5854 86.0753 11.3315C86.574 12.0776 86.8405 12.9547 86.8412 13.8521V22.1633H95.1479C96.046 22.1635 96.9239 22.43 97.6706 22.9291C98.4173 23.4281 98.9993 24.1374 99.3429 24.9671C99.6866 25.7969 99.7766 26.7099 99.6014 27.5908C99.4262 28.4716 98.9938 29.2808 98.3589 29.916L82.295 45.9617C81.4435 46.8135 80.2885 47.2921 79.084 47.2924H68.125L59.8183 55.5991C58.9661 56.4507 57.8105 56.9289 56.6057 56.9284C55.401 56.928 54.2457 56.449 53.3941 55.5968C52.5425 54.7446 52.0643 53.589 52.0647 52.3842C52.0652 51.1795 52.5442 50.0242 53.3964 49.1726L61.7031 40.875V29.9114C61.7026 29.3143 61.8199 28.7229 62.0482 28.1712C62.2766 27.6194 62.6115 27.1181 63.0338 26.6959L79.0886 10.6411C79.7237 10.0056 80.5331 9.57274 81.4143 9.39731C82.2955 9.22188 83.2089 9.31176 84.039 9.65559V9.66013Z" fill="#E8C6BB"/>
</g>
<defs>
<clipPath id="clip0_2_100">
<rect width="109" height="109" fill="white"/>
</clipPath>
</defs>
</svg>
