<svg width="109" height="109" viewBox="0 0 109 109" fill="none" xmlns="http://www.w3.org/2000/svg">
<g clip-path="url(#clip0_2_86)">
<path fill-rule="evenodd" clip-rule="evenodd" d="M86.2917 21.532V36.3333C88.0809 36.3333 89.8527 36.6858 91.5057 37.3705C93.1588 38.0552 94.6608 39.0588 95.926 40.324C97.1912 41.5892 98.1948 43.0912 98.8795 44.7443C99.5642 46.3973 99.9167 48.1691 99.9167 49.9583C99.9167 51.7476 99.5642 53.5193 98.8795 55.1724C98.1948 56.8255 97.1912 58.3275 95.926 59.5927C94.6608 60.8579 93.1588 61.8615 91.5057 62.5462C89.8527 63.2309 88.0809 63.5833 86.2917 63.5833V77.2083C86.2917 84.693 77.7488 88.9667 71.7583 84.475L62.4025 77.4536C57.4015 73.7038 51.5786 71.2003 45.4167 70.1506V83.0671C45.4172 86.0362 44.3444 88.9053 42.396 91.1457C40.4477 93.3861 37.7551 94.8467 34.8147 95.2583C31.8743 95.6698 28.8842 95.0045 26.3956 93.3851C23.9071 91.7657 22.0878 89.3012 21.2732 86.4461L14.1428 61.4851C11.5768 58.4548 9.90691 54.7689 9.3208 50.8417C8.7347 46.9145 9.25562 42.9017 10.825 39.2542C12.3944 35.6068 14.95 32.4695 18.2046 30.1948C21.4592 27.9201 25.2837 26.5983 29.2483 26.378L42.9551 25.615C49.6614 25.2418 56.1833 23.2821 61.9847 19.897L72.6303 13.684C78.6889 10.1552 86.2917 14.5197 86.2917 21.532ZM25.5877 68.4792L30.0068 83.9527C30.2195 84.7017 30.696 85.3485 31.3483 85.7735C32.0006 86.1986 32.7847 86.3733 33.5558 86.2654C34.3269 86.1574 35.0329 85.7741 35.5434 85.1863C36.0539 84.5984 36.3345 83.8457 36.3333 83.0671V69.3967L29.2483 69.0015C28.0154 68.9331 26.7906 68.7584 25.5877 68.4792ZM77.2083 21.532L66.5581 27.7496C60.0879 31.5212 52.8732 33.8367 45.4167 34.5348V60.9628C53.5326 62.08 61.258 65.2456 67.8525 70.1869L77.2083 77.2083V21.532ZM36.3333 35.0798L29.7479 35.4432C26.6843 35.6123 23.7954 36.9238 21.6516 39.1188C19.5077 41.3138 18.2645 44.2328 18.1676 47.2995C18.0706 50.3662 19.1269 53.3579 21.1278 55.6839C23.1288 58.01 25.929 59.5014 28.9758 59.8637L29.7479 59.9318L36.3333 60.2952V35.0798ZM86.2917 45.4167V54.5C87.4492 54.4987 88.5626 54.0555 89.4044 53.2608C90.2461 52.4662 90.7526 51.3801 90.8205 50.2245C90.8883 49.0689 90.5124 47.931 89.7694 47.0433C89.0264 46.1557 87.9725 45.5852 86.823 45.4485L86.2917 45.4167Z" fill="#E8C6BB"/>
</g>
<defs>
<clipPath id="clip0_2_86">
<rect width="109" height="109" fill="white"/>
</clipPath>
</defs>
</svg>
