<svg width="109" height="109" viewBox="0 0 109 109" fill="none" xmlns="http://www.w3.org/2000/svg">
<path d="M23.2068 8.19544L18.4108 12.9846L25.5469 20.1173L30.3361 15.3281L23.2034 8.19544H23.2068ZM85.7966 8.19544L78.6605 15.3281L83.4531 20.1173L90.5858 12.988L85.7966 8.19544ZM54.5 10.3209C53.3759 10.3346 52.2382 10.3993 51.0938 10.5389C51.0597 10.5389 51.0256 10.5321 50.9916 10.5389C37.1758 12.1228 26.1804 23.2851 24.2695 37.0396C22.7435 48.1099 27.3079 58.1481 34.9141 64.6132C38.0254 67.2685 40.1298 70.9122 40.875 74.9341V95.3716H48.6412C49.8266 97.4051 51.9896 98.7778 54.5 98.7778C57.0104 98.7778 59.1734 97.4051 60.3587 95.3716H68.125V81.7466H68.4452V77.7C68.4452 72.7064 71.0407 67.672 75.2577 63.7582C80.8984 58.1106 85.1562 50.0889 85.1562 40.875C85.1562 24.0481 71.3064 10.1643 54.5 10.3209ZM54.5 17.1334C67.6652 16.9495 78.3438 27.7269 78.3438 40.875C78.3438 48.0077 75.0397 54.2888 70.4651 58.86L70.5741 58.969C66.028 63.1611 63.0884 68.809 62.2628 74.9375H47.3639C46.6145 69.0992 44.1109 63.4482 39.3797 59.3948C33.3608 54.2854 29.774 46.5873 30.973 37.8945C32.4616 27.1648 41.1679 18.5368 51.8363 17.3548C52.7171 17.232 53.6042 17.1593 54.4932 17.1368L54.5 17.1334ZM6.8125 40.875V47.6875H17.0312V40.875H6.8125ZM91.9688 40.875V47.6875H102.188V40.875H91.9688ZM25.5469 68.4452L18.4142 75.5745L23.2068 80.3671L30.3327 73.2344L25.5469 68.4452ZM83.4531 68.4452L78.6639 73.2344L85.7932 80.3671L90.5858 75.5745L83.4531 68.4452ZM47.6875 81.75H61.3125V88.5625H47.6875V81.75Z" fill="#E8C6BB"/>
</svg>
