<svg width="109" height="109" viewBox="0 0 109 109" fill="none" xmlns="http://www.w3.org/2000/svg">
<path d="M21.644 85.1562H98.7812V3.40625H21.4311C18.0091 3.41725 14.7304 4.78151 12.3106 7.20125C9.89089 9.62098 8.52663 12.8997 8.51562 16.3217V91.5962H8.51797C8.51797 91.6283 8.51562 91.6601 8.51562 91.6926C8.51562 99.229 14.4302 105.594 21.4311 105.594H98.7812V98.7812H21.4311C18.2371 98.7812 15.3281 95.4025 15.3281 91.692C15.3281 88.1495 18.2202 85.1562 21.644 85.1562ZM76.6406 10.2896V47.0805L66.3367 38.0348L56.2031 47.0275V10.2896H76.6406ZM49.3906 10.2188V56.2031H56.1267L66.3614 47.1214L76.7056 56.2031H83.4531V10.2188H91.9688V78.3438H28.9702L28.9531 10.2188H49.3906ZM21.4311 10.2188H22.1406L22.1568 78.3438H21.6431C19.4279 78.3442 17.2512 78.9226 15.3281 80.022V16.3749C15.3229 14.7498 15.9625 13.189 17.1067 12.0349C18.2508 10.8808 19.806 10.2276 21.4311 10.2188Z" fill="#E8C6BB"/>
</svg>
