<svg width="109" height="111" viewBox="0 0 109 111" fill="none" xmlns="http://www.w3.org/2000/svg">
<g filter="url(#filter0_d_2_75)">
<path d="M98.315 11.4556C98.2788 11.2809 98.1935 11.1202 98.069 10.9923C97.9445 10.8645 97.7862 10.7748 97.6125 10.7339C86.0355 7.9025 59.2922 17.9914 44.7879 32.485C42.203 35.0487 39.8459 37.8325 37.7434 40.8047C33.2727 40.4003 28.802 40.7409 24.9955 42.4014C14.2466 47.1276 11.1193 59.471 10.2464 64.7698C10.1991 65.0602 10.2193 65.3575 10.3055 65.6388C10.3916 65.9201 10.5413 66.1778 10.7431 66.3919C10.9448 66.606 11.1931 66.7707 11.4688 66.8734C11.7445 66.9761 12.0401 67.0139 12.3328 66.9839L29.5918 65.0892C29.6037 66.3909 29.6819 67.6913 29.826 68.9851C29.9161 69.8793 30.315 70.7142 30.9543 71.346L37.6369 78.0287C38.2693 78.6684 39.105 79.0674 40 79.157C41.2861 79.3004 42.5785 79.3786 43.8725 79.3912L41.9799 96.6353C41.9504 96.9276 41.9884 97.2227 42.0911 97.4979C42.1938 97.7732 42.3584 98.0211 42.5722 98.2225C42.786 98.424 43.0433 98.5736 43.3241 98.6597C43.605 98.7459 43.9018 98.7664 44.1918 98.7195C49.4928 97.8679 61.8618 94.7406 66.5603 83.9939C68.2208 80.1831 68.5614 75.7358 68.1782 71.2864C71.1593 69.1859 73.951 66.8287 76.5214 64.2419C91.0789 49.7653 101.104 23.6096 98.315 11.4556ZM63.5819 45.4883C62.3104 44.2171 61.4444 42.5973 61.0935 40.8339C60.7426 39.0705 60.9225 37.2426 61.6104 35.5814C62.2984 33.9202 63.4635 32.5004 64.9585 31.5014C66.4535 30.5025 68.2111 29.9693 70.0091 29.9693C71.8071 29.9693 73.5647 30.5025 75.0597 31.5014C76.5546 32.5004 77.7198 33.9202 78.4077 35.5814C79.0957 37.2426 79.2756 39.0705 78.9247 40.8339C78.5738 42.5973 77.7078 44.2171 76.4363 45.4883C75.5929 46.3335 74.5911 47.004 73.4882 47.4615C72.3853 47.919 71.2031 48.1545 70.0091 48.1545C68.8151 48.1545 67.6328 47.919 66.53 47.4615C65.4271 47.004 64.4253 46.3335 63.5819 45.4883Z" stroke="#E8C6BB" stroke-width="6.8125" stroke-linecap="round" stroke-linejoin="round"/>
<path d="M23.3413 74.9375C21.2191 75.198 19.2446 76.1601 17.7317 77.671C13.9805 81.4349 13.625 95.375 13.625 95.375C13.625 95.375 27.5736 95.0195 31.3269 91.2641C32.8439 89.7535 33.8076 87.7758 34.0625 85.6502" stroke="#E8C6BB" stroke-width="6.8125" stroke-linecap="round" stroke-linejoin="round"/>
</g>
<defs>
<filter id="filter0_d_2_75" x="-4" y="0" width="117" height="117" filterUnits="userSpaceOnUse" color-interpolation-filters="sRGB">
<feFlood flood-opacity="0" result="BackgroundImageFix"/>
<feColorMatrix in="SourceAlpha" type="matrix" values="0 0 0 0 0 0 0 0 0 0 0 0 0 0 0 0 0 0 127 0" result="hardAlpha"/>
<feOffset dy="4"/>
<feGaussianBlur stdDeviation="2"/>
<feComposite in2="hardAlpha" operator="out"/>
<feColorMatrix type="matrix" values="0 0 0 0 0 0 0 0 0 0 0 0 0 0 0 0 0 0 0.25 0"/>
<feBlend mode="normal" in2="BackgroundImageFix" result="effect1_dropShadow_2_75"/>
<feBlend mode="normal" in="SourceGraphic" in2="effect1_dropShadow_2_75" result="shape"/>
</filter>
</defs>
</svg>
